<svg width="7" height="10" viewBox="0 0 7 10" fill="none" xmlns="http://www.w3.org/2000/svg">
<path d="M2.86364 10V8.82353H1.59091V7.64706H2.86364V6.41176C2.02576 6.27451 1.33891 5.90431 0.803091 5.30118C0.267273 4.69804 -0.000423739 3.99961 5.03452e-07 3.20588C5.03452e-07 2.31373 0.342152 1.55647 1.02645 0.934118C1.71076 0.311765 2.53527 0.000392157 3.5 0C4.46515 0 5.28988 0.311372 5.97418 0.934118C6.65848 1.55686 7.00042 2.31412 7 3.20588C7 4 6.73209 4.69863 6.19627 5.30176C5.66045 5.9049 4.97382 6.2749 4.13636 6.41176V7.64706H5.40909V8.82353H4.13636V10H2.86364ZM3.5 5.29412C4.11515 5.29412 4.64015 5.09314 5.075 4.69118C5.50985 4.28922 5.72727 3.80392 5.72727 3.23529C5.72727 2.66667 5.50985 2.18137 5.075 1.77941C4.64015 1.37745 4.11515 1.17647 3.5 1.17647C2.88485 1.17647 2.35985 1.37745 1.925 1.77941C1.49015 2.18137 1.27273 2.66667 1.27273 3.23529C1.27273 3.80392 1.49015 4.28922 1.925 4.69118C2.35985 5.09314 2.88485 5.29412 3.5 5.29412Z" fill="#FF7F7F"/>
</svg>
