<svg width="61" height="22" viewBox="0 0 61 22" fill="none" xmlns="http://www.w3.org/2000/svg">
<rect x="0.5" y="0.5" width="60" height="21" rx="10.5" stroke="#35F32A"/>
<path d="M26.092 15V6.432H27.16V14.04H30.664V15H26.092ZM32.9571 8.568V15H31.9131V8.568H32.9571ZM32.4411 6.156C32.6011 6.156 32.7411 6.212 32.8611 6.324C32.9811 6.428 33.0411 6.596 33.0411 6.828C33.0411 7.052 32.9811 7.22 32.8611 7.332C32.7411 7.444 32.6011 7.5 32.4411 7.5C32.2731 7.5 32.1291 7.444 32.0091 7.332C31.8891 7.22 31.8291 7.052 31.8291 6.828C31.8291 6.596 31.8891 6.428 32.0091 6.324C32.1291 6.212 32.2731 6.156 32.4411 6.156ZM36.1983 15L33.9062 8.568H35.0223L36.2943 12.36C36.3583 12.536 36.4223 12.732 36.4863 12.948C36.5503 13.164 36.6063 13.372 36.6543 13.572C36.7103 13.764 36.7463 13.928 36.7623 14.064H36.8103C36.8343 13.928 36.8743 13.76 36.9303 13.56C36.9863 13.36 37.0463 13.152 37.1103 12.936C37.1823 12.72 37.2463 12.528 37.3023 12.36L38.5743 8.568H39.6903L37.3863 15H36.1983ZM42.9953 8.448C43.5153 8.448 43.9633 8.568 44.3393 8.808C44.7153 9.048 45.0033 9.388 45.2033 9.828C45.4113 10.26 45.5153 10.768 45.5153 11.352V11.988H41.3873C41.4033 12.716 41.5753 13.272 41.9033 13.656C42.2313 14.032 42.6913 14.22 43.2833 14.22C43.6673 14.22 44.0073 14.184 44.3033 14.112C44.6073 14.032 44.9193 13.92 45.2393 13.776V14.7C44.9273 14.844 44.6193 14.948 44.3153 15.012C44.0193 15.084 43.6593 15.12 43.2353 15.12C42.6593 15.12 42.1513 14.996 41.7113 14.748C41.2713 14.5 40.9273 14.132 40.6793 13.644C40.4313 13.148 40.3073 12.544 40.3073 11.832C40.3073 11.128 40.4193 10.524 40.6433 10.02C40.8673 9.516 41.1793 9.128 41.5793 8.856C41.9873 8.584 42.4593 8.448 42.9953 8.448ZM42.9953 9.312C42.5313 9.312 42.1633 9.476 41.8913 9.804C41.6193 10.124 41.4593 10.572 41.4113 11.148H44.4353C44.4353 10.78 44.3833 10.46 44.2793 10.188C44.1753 9.916 44.0153 9.704 43.7993 9.552C43.5913 9.392 43.3233 9.312 42.9953 9.312Z" fill="#35F32A"/>
<circle cx="17" cy="11" r="3" fill="#35F32A"/>
</svg>
