<svg width="10" height="10" viewBox="0 0 10 10" fill="none" xmlns="http://www.w3.org/2000/svg">
<path d="M3.4375 4.375C4.64375 4.375 5.625 5.35625 5.625 6.5625C5.625 7.76875 4.64375 8.75 3.4375 8.75C2.23125 8.75 1.25 7.76875 1.25 6.5625C1.25 5.35625 2.23125 4.375 3.4375 4.375ZM3.4375 3.125C1.5375 3.125 0 4.6625 0 6.5625C0 8.4625 1.5375 10 3.4375 10C5.3375 10 6.875 8.4625 6.875 6.5625C6.875 5.8375 6.65 5.16875 6.26875 4.6125L8.75 2.1375V3.75H10V0H6.25V1.25H7.8625L5.38125 3.73125C4.83125 3.35 4.1625 3.125 3.4375 3.125Z" fill="#86BBE5"/>
</svg>
